<svg width="190" height="70" viewBox="0 0 190 70" fill="none" xmlns="http://www.w3.org/2000/svg">
<g filter="url(#filter0_d_0_1)">
<mask id="path-1-outside-1_0_1" maskUnits="userSpaceOnUse" x="146.514" y="13.4128" width="39" height="46" fill="black">
<rect fill="white" x="146.514" y="13.4128" width="39" height="46"/>
<path d="M184.173 38.9583L147.582 57.5947V50.3219L175.65 36.7992L175.423 37.2537V36.1174L175.65 36.5719L147.582 23.0492V15.7765L184.173 34.4128V38.9583Z"/>
</mask>
<path d="M184.173 38.9583L147.582 57.5947V50.3219L175.65 36.7992L175.423 37.2537V36.1174L175.65 36.5719L147.582 23.0492V15.7765L184.173 34.4128V38.9583Z" fill="black"/>
<path d="M184.173 38.9583L184.627 39.8494L185.173 39.5712V38.9583H184.173ZM147.582 57.5947H146.582V59.2262L148.036 58.4857L147.582 57.5947ZM147.582 50.3219L147.148 49.421L146.582 49.6937V50.3219H147.582ZM175.65 36.7992L176.545 37.2464L177.854 34.6274L175.216 35.8983L175.65 36.7992ZM175.423 37.2537H174.423L176.317 37.701L175.423 37.2537ZM175.423 36.1174L176.317 35.6702L174.423 36.1174H175.423ZM175.65 36.5719L175.216 37.4728L177.854 38.7438L176.545 36.1247L175.65 36.5719ZM147.582 23.0492H146.582V23.6774L147.148 23.9501L147.582 23.0492ZM147.582 15.7765L148.036 14.8854L146.582 14.1449V15.7765H147.582ZM184.173 34.4128H185.173V33.7999L184.627 33.5218L184.173 34.4128ZM183.719 38.0672L147.128 56.7036L148.036 58.4857L184.627 39.8494L183.719 38.0672ZM148.582 57.5947V50.3219H146.582V57.5947H148.582ZM148.016 51.2228L176.084 37.7001L175.216 35.8983L147.148 49.421L148.016 51.2228ZM174.756 36.352L174.528 36.8065L176.317 37.701L176.545 37.2464L174.756 36.352ZM176.423 37.2537V36.1174H174.423V37.2537H176.423ZM174.528 36.5646L174.756 37.0191L176.545 36.1247L176.317 35.6702L174.528 36.5646ZM176.084 35.671L148.016 22.1483L147.148 23.9501L175.216 37.4728L176.084 35.671ZM148.582 23.0492V15.7765H146.582V23.0492H148.582ZM147.128 16.6676L183.719 35.3039L184.627 33.5218L148.036 14.8854L147.128 16.6676ZM183.173 34.4128V38.9583H185.173V34.4128H183.173Z" fill="black" mask="url(#path-1-outside-1_0_1)"/>
<mask id="path-3-outside-2_0_1" maskUnits="userSpaceOnUse" x="4" y="13.4128" width="39" height="46" fill="black">
<rect fill="white" x="4" y="13.4128" width="39" height="46"/>
<path d="M5.06818 38.9583V34.4128L41.6591 15.7765V23.0492L13.5909 36.5719L13.8182 36.1174V37.2537L13.5909 36.7992L41.6591 50.3219V57.5947L5.06818 38.9583Z"/>
</mask>
<path d="M5.06818 38.9583V34.4128L41.6591 15.7765V23.0492L13.5909 36.5719L13.8182 36.1174V37.2537L13.5909 36.7992L41.6591 50.3219V57.5947L5.06818 38.9583Z" fill="black"/>
<path d="M5.06818 38.9583H4.06818V39.5712L4.61434 39.8494L5.06818 38.9583ZM5.06818 34.4128L4.61434 33.5218L4.06818 33.7999V34.4128H5.06818ZM41.6591 15.7765H42.6591V14.1449L41.2052 14.8854L41.6591 15.7765ZM41.6591 23.0492L42.0931 23.9501L42.6591 23.6774V23.0492H41.6591ZM13.5909 36.5719L12.6965 36.1247L11.387 38.7438L14.0249 37.4728L13.5909 36.5719ZM13.8182 36.1174H14.8182L12.9238 35.6702L13.8182 36.1174ZM13.8182 37.2537L12.9238 37.701L14.8182 37.2537H13.8182ZM13.5909 36.7992L14.0249 35.8983L11.387 34.6274L12.6965 37.2464L13.5909 36.7992ZM41.6591 50.3219H42.6591V49.6937L42.0931 49.421L41.6591 50.3219ZM41.6591 57.5947L41.2052 58.4857L42.6591 59.2262V57.5947H41.6591ZM6.06818 38.9583V34.4128H4.06818V38.9583H6.06818ZM5.52202 35.3039L42.1129 16.6676L41.2052 14.8854L4.61434 33.5218L5.52202 35.3039ZM40.6591 15.7765V23.0492H42.6591V15.7765H40.6591ZM41.2251 22.1483L13.1569 35.671L14.0249 37.4728L42.0931 23.9501L41.2251 22.1483ZM14.4853 37.0191L14.7126 36.5646L12.9238 35.6702L12.6965 36.1247L14.4853 37.0191ZM12.8182 36.1174V37.2537H14.8182V36.1174H12.8182ZM14.7126 36.8065L14.4853 36.352L12.6965 37.2464L12.9238 37.701L14.7126 36.8065ZM13.1569 37.7001L41.2251 51.2228L42.0931 49.421L14.0249 35.8983L13.1569 37.7001ZM40.6591 50.3219V57.5947H42.6591V50.3219H40.6591ZM42.1129 56.7036L5.52202 38.0672L4.61434 39.8494L41.2052 58.4857L42.1129 56.7036Z" fill="black" mask="url(#path-3-outside-2_0_1)"/>
<mask id="path-5-outside-3_0_1" maskUnits="userSpaceOnUse" x="92.6758" y="-0.587158" width="45" height="61" fill="black">
<rect fill="white" x="92.6758" y="-0.587158" width="45" height="61"/>
<path d="M93.8804 6.00375V1.23102H136.068V6.00375H117.63V59.4128H112.318V6.00375H93.8804Z"/>
</mask>
<path d="M93.8804 6.00375V1.23102H136.068V6.00375H117.63V59.4128H112.318V6.00375H93.8804Z" fill="black"/>
<path d="M93.8804 6.00375H92.8804V7.00375H93.8804V6.00375ZM93.8804 1.23102V0.231022H92.8804V1.23102H93.8804ZM136.068 1.23102H137.068V0.231022H136.068V1.23102ZM136.068 6.00375V7.00375H137.068V6.00375H136.068ZM117.63 6.00375V5.00375H116.63V6.00375H117.63ZM117.63 59.4128V60.4128H118.63V59.4128H117.63ZM112.318 59.4128H111.318V60.4128H112.318V59.4128ZM112.318 6.00375H113.318V5.00375H112.318V6.00375ZM94.8804 6.00375V1.23102H92.8804V6.00375H94.8804ZM93.8804 2.23102H136.068V0.231022H93.8804V2.23102ZM135.068 1.23102V6.00375H137.068V1.23102H135.068ZM136.068 5.00375H117.63V7.00375H136.068V5.00375ZM116.63 6.00375V59.4128H118.63V6.00375H116.63ZM117.63 58.4128H112.318V60.4128H117.63V58.4128ZM113.318 59.4128V6.00375H111.318V59.4128H113.318ZM112.318 5.00375H93.8804V7.00375H112.318V5.00375Z" fill="black" mask="url(#path-5-outside-3_0_1)"/>
<mask id="path-7-outside-4_0_1" maskUnits="userSpaceOnUse" x="51.6217" y="-0.587158" width="35" height="62" fill="black">
<rect fill="white" x="51.6217" y="-0.587158" width="35" height="62"/>
<path d="M79.3944 1.23102H84.7069V43.1913C84.688 46.9791 84.0062 50.142 82.6615 52.6799C81.3168 55.1988 79.4607 57.0833 77.0933 58.3333C74.7259 59.5833 72.0081 60.2083 68.9399 60.2083C65.9285 60.2083 63.2391 59.6496 60.8717 58.5322C58.5043 57.4147 56.6388 55.8428 55.2751 53.8163C53.9304 51.7897 53.2581 49.4128 53.2581 46.6856H58.4853C58.4853 48.4091 58.9399 49.9337 59.849 51.2594C60.7581 52.5663 61.9986 53.589 63.5706 54.3276C65.1615 55.0663 66.9513 55.4356 68.9399 55.4356C71.0043 55.4356 72.813 55 74.366 54.1288C75.938 53.2575 77.1691 51.9223 78.0592 50.1231C78.9494 48.3049 79.3944 45.9943 79.3944 43.1913V1.23102Z"/>
</mask>
<path d="M79.3944 1.23102H84.7069V43.1913C84.688 46.9791 84.0062 50.142 82.6615 52.6799C81.3168 55.1988 79.4607 57.0833 77.0933 58.3333C74.7259 59.5833 72.0081 60.2083 68.9399 60.2083C65.9285 60.2083 63.2391 59.6496 60.8717 58.5322C58.5043 57.4147 56.6388 55.8428 55.2751 53.8163C53.9304 51.7897 53.2581 49.4128 53.2581 46.6856H58.4853C58.4853 48.4091 58.9399 49.9337 59.849 51.2594C60.7581 52.5663 61.9986 53.589 63.5706 54.3276C65.1615 55.0663 66.9513 55.4356 68.9399 55.4356C71.0043 55.4356 72.813 55 74.366 54.1288C75.938 53.2575 77.1691 51.9223 78.0592 50.1231C78.9494 48.3049 79.3944 45.9943 79.3944 43.1913V1.23102Z" fill="black"/>
<path d="M79.3944 1.23102V0.231022H78.3944V1.23102H79.3944ZM84.7069 1.23102H85.7069V0.231022H84.7069V1.23102ZM84.7069 43.1913L85.7069 43.1963V43.1913H84.7069ZM82.6615 52.6799L83.5437 53.1508L83.5451 53.1481L82.6615 52.6799ZM77.0933 58.3333L77.5602 59.2176L77.5602 59.2176L77.0933 58.3333ZM60.8717 58.5322L61.2986 57.6278L61.2986 57.6278L60.8717 58.5322ZM55.2751 53.8163L54.4419 54.3692L54.4455 54.3745L55.2751 53.8163ZM53.2581 46.6856V45.6856H52.2581V46.6856H53.2581ZM58.4853 46.6856H59.4853V45.6856H58.4853V46.6856ZM59.849 51.2594L59.0242 51.825L59.0281 51.8305L59.849 51.2594ZM63.5706 54.3276L63.1453 55.2327L63.1495 55.2346L63.5706 54.3276ZM74.366 54.1288L73.8813 53.2541L73.8768 53.2566L74.366 54.1288ZM78.0592 50.1231L78.9555 50.5665L78.9573 50.5628L78.0592 50.1231ZM79.3944 2.23102H84.7069V0.231022H79.3944V2.23102ZM83.7069 1.23102V43.1913H85.7069V1.23102H83.7069ZM83.707 43.1863C83.6886 46.8622 83.0267 49.8547 81.7779 52.2117L83.5451 53.1481C84.9857 50.4293 85.6874 47.0961 85.7069 43.1963L83.707 43.1863ZM81.7793 52.209C80.5221 54.5641 78.8053 56.2986 76.6264 57.449L77.5602 59.2176C80.1162 57.868 82.1115 55.8336 83.5437 53.1508L81.7793 52.209ZM76.6264 57.449C74.4227 58.6126 71.8693 59.2083 68.9399 59.2083V61.2083C72.1469 61.2083 75.0291 60.554 77.5602 59.2176L76.6264 57.449ZM68.9399 59.2083C66.054 59.2083 63.5138 58.6734 61.2986 57.6278L60.4449 59.4365C62.9645 60.6257 65.8031 61.2083 68.9399 61.2083V59.2083ZM61.2986 57.6278C59.082 56.5816 57.3605 55.1242 56.1048 53.258L54.4455 54.3745C55.917 56.5613 57.9266 58.2479 60.4449 59.4365L61.2986 57.6278ZM56.1084 53.2633C54.8853 51.4202 54.2581 49.2409 54.2581 46.6856H52.2581C52.2581 49.5848 52.9755 52.1593 54.4419 54.3692L56.1084 53.2633ZM53.2581 47.6856H58.4853V45.6856H53.2581V47.6856ZM57.4853 46.6856C57.4853 48.5956 57.9926 50.3205 59.0243 51.825L60.6737 50.6939C59.8872 49.5468 59.4853 48.2225 59.4853 46.6856H57.4853ZM59.0281 51.8305C60.0464 53.2944 61.4293 54.4264 63.1453 55.2327L63.9958 53.4225C62.5679 52.7516 61.4697 51.8381 60.6699 50.6884L59.0281 51.8305ZM63.1495 55.2346C64.8889 56.0422 66.8253 56.4356 68.9399 56.4356V54.4356C67.0772 54.4356 65.4341 54.0903 63.9917 53.4206L63.1495 55.2346ZM68.9399 56.4356C71.1481 56.4356 73.1305 55.9685 74.8553 55.0009L73.8768 53.2566C72.4955 54.0315 70.8605 54.4356 68.9399 54.4356V56.4356ZM74.8508 55.0034C76.6211 54.0223 77.9862 52.5258 78.9555 50.5665L77.1629 49.6796C76.3519 51.3188 75.2549 52.4928 73.8813 53.2541L74.8508 55.0034ZM78.9573 50.5628C79.9352 48.5655 80.3944 46.0915 80.3944 43.1913H78.3944C78.3944 45.8971 77.9635 48.0443 77.1611 49.6834L78.9573 50.5628ZM80.3944 43.1913V1.23102H78.3944V43.1913H80.3944Z" fill="black" mask="url(#path-7-outside-4_0_1)"/>
</g>
<defs>
<filter id="filter0_d_0_1" x="0.068182" y="0.231018" width="189.105" height="68.9773" filterUnits="userSpaceOnUse" color-interpolation-filters="sRGB">
<feFlood flood-opacity="0" result="BackgroundImageFix"/>
<feColorMatrix in="SourceAlpha" type="matrix" values="0 0 0 0 0 0 0 0 0 0 0 0 0 0 0 0 0 0 127 0" result="hardAlpha"/>
<feOffset dy="4"/>
<feGaussianBlur stdDeviation="2"/>
<feComposite in2="hardAlpha" operator="out"/>
<feColorMatrix type="matrix" values="0 0 0 0 0 0 0 0 0 0 0 0 0 0 0 0 0 0 0.25 0"/>
<feBlend mode="normal" in2="BackgroundImageFix" result="effect1_dropShadow_0_1"/>
<feBlend mode="normal" in="SourceGraphic" in2="effect1_dropShadow_0_1" result="shape"/>
</filter>
</defs>
</svg>
